<svg width="16" height="16" viewBox="0 0 16 16" fill="none" xmlns="http://www.w3.org/2000/svg">
<path d="M15.45 1.17C15.27 0.93 15.06 0.71 14.82 0.54C14.07 0 13.00 0 10.87 0H5.12C2.98 0 1.92 0 1.17 0.54C0.93 0.71 0.71 0.93 0.54 1.17C0 1.92 0 2.98 0 5.12V10.87C0 13.00 0 14.07 0.54 14.82C0.71 15.06 0.93 15.27 1.17 15.45C1.92 16 2.98 16 5.12 16H10.87C13.00 16 14.07 16 14.82 15.45C15.06 15.27 15.27 15.06 15.45 14.82C16 14.07 16 13.00 16 10.87V5.12C15.99 2.98 15.99 1.92 15.45 1.17ZM7.40 10.88C7.40 11.38 7.40 11.63 7.32 11.83C7.21 12.09 7.00 12.30 6.74 12.41C6.54 12.49 6.29 12.49 5.79 12.49C5.29 12.49 5.04 12.49 4.84 12.41C4.58 12.30 4.37 12.09 4.26 11.83C4.18 11.63 4.18 11.38 4.18 10.88V5.60C4.18 5.00 4.18 4.69 4.29 4.46C4.40 4.26 4.56 4.10 4.76 3.99C4.99 3.88 5.30 3.88 5.90 3.88H7.40L7.40 10.88ZM10.84 7.74C10.46 7.74 10.09 7.63 9.78 7.42C9.47 7.21 9.23 6.91 9.08 6.57C8.94 6.22 8.90 5.84 8.97 5.47C9.05 5.10 9.23 4.76 9.49 4.50C9.76 4.23 10.10 4.05 10.47 3.98C10.84 3.90 11.22 3.94 11.56 4.08C11.91 4.23 12.21 4.47 12.42 4.78C12.63 5.10 12.74 5.46 12.74 5.84C12.74 6.09 12.69 6.34 12.59 6.57C12.50 6.80 12.36 7.01 12.18 7.18C12.01 7.36 11.80 7.50 11.57 7.59C11.34 7.69 11.09 7.74 10.84 7.74H10.84Z" fill="black"/>
</svg>
